<?xml version="1.0" standalone="no"?>
<!DOCTYPE svg PUBLIC "-//W3C//DTD SVG 20010904//EN"
 "http://www.w3.org/TR/2001/REC-SVG-20010904/DTD/svg10.dtd">
<svg version="1.0" xmlns="http://www.w3.org/2000/svg"
 width="509.000000pt" height="509.000000pt" viewBox="0 0 509.000000 509.000000"
 preserveAspectRatio="xMidYMid meet">
<metadata>
Created by potrace 1.14, written by Peter Selinger 2001-2017
</metadata>
<g transform="translate(0.000000,509.000000) scale(0.100000,-0.100000)"
fill="#000000" stroke="none">
<path d="M2359 5086 c-2 -2 -35 -6 -74 -10 -83 -7 -105 -11 -280 -41 -56 -10
-210 -53 -267 -75 -142 -53 -224 -223 -174 -361 21 -59 216 -390 264 -447 48
-57 150 -123 222 -143 51 -14 859 -20 944 -7 81 12 188 71 248 137 55 60 260
407 278 472 15 53 12 124 -9 178 -47 124 -126 173 -374 231 -108 25 -154 33
-242 45 -27 4 -63 9 -80 11 -37 6 -451 14 -456 10z"/>
<path d="M3980 4506 c-54 -14 -105 -44 -142 -83 -33 -36 -235 -382 -260 -447
-10 -26 -21 -83 -25 -126 -9 -122 12 -174 198 -496 89 -154 183 -318 210 -365
75 -134 157 -205 282 -248 49 -17 87 -20 302 -21 137 0 262 4 283 9 65 18 129
67 169 128 51 80 56 158 18 308 -89 357 -276 726 -507 1004 -122 145 -274 290
-334 318 -62 28 -132 35 -194 19z"/>
<path d="M941 4499 c-53 -16 -107 -59 -212 -166 -200 -205 -353 -421 -473
-667 -123 -250 -216 -543 -212 -666 3 -111 63 -202 165 -252 45 -22 55 -23
327 -23 l280 0 75 37 c108 54 167 113 236 238 17 30 106 186 198 345 93 160
176 314 185 344 39 125 19 258 -58 389 -22 37 -49 84 -61 105 -129 229 -143
246 -226 296 -46 27 -165 38 -224 20z"/>
<path d="M2053 3629 c-144 -41 -230 -112 -307 -254 -18 -33 -108 -190 -201
-350 -92 -159 -176 -315 -187 -345 -19 -57 -25 -157 -14 -225 11 -59 47 -130
225 -435 88 -151 173 -299 188 -329 57 -109 177 -205 297 -237 79 -21 889 -20
971 1 104 27 180 79 253 171 17 23 32 44 32 47 0 3 38 71 85 152 47 80 96 165
109 188 26 46 150 261 178 308 31 51 55 142 57 212 2 81 -18 159 -64 242 -144
259 -392 678 -424 716 -48 55 -114 101 -190 130 -54 21 -69 22 -503 23 -389 2
-455 0 -505 -15z"/>
<path d="M274 2360 c-122 -26 -217 -130 -230 -252 -13 -127 103 -489 242 -753
123 -236 279 -443 483 -643 133 -129 227 -161 356 -121 86 26 128 73 236 263
51 88 98 169 106 178 8 9 25 49 38 90 28 89 30 186 5 269 -18 59 -23 69 -123
240 -31 53 -69 119 -84 146 -234 412 -273 469 -359 519 -109 64 -128 67 -394
69 -135 1 -259 -2 -276 -5z"/>
<path d="M4264 2355 c-131 -36 -231 -122 -314 -270 -30 -54 -62 -110 -70 -124
-8 -14 -31 -53 -49 -86 -19 -33 -81 -140 -137 -237 -57 -97 -113 -205 -124
-239 -26 -76 -25 -189 1 -269 19 -59 217 -406 260 -457 79 -93 221 -125 339
-75 50 21 263 233 370 368 93 117 210 302 278 439 89 180 135 307 212 593 4
18 7 61 6 95 -5 105 -63 194 -161 245 -50 26 -51 27 -305 29 -194 2 -267 -1
-306 -12z"/>
<path d="M2045 1075 c-130 -40 -229 -123 -293 -245 -7 -14 -54 -96 -104 -183
-90 -156 -91 -158 -94 -232 -2 -41 2 -90 9 -109 19 -53 72 -122 115 -150 58
-36 273 -98 427 -122 28 -4 57 -9 65 -10 72 -14 168 -19 360 -19 278 0 350 7
579 56 159 35 265 73 315 114 85 70 127 203 95 303 -23 73 -240 431 -291 482
-57 55 -128 97 -202 116 -70 19 -920 18 -981 -1z"/>
</g>
</svg>
